<?xml version="1.0" encoding="utf-8"?>
<!-- Svg Vector Icons : http://www.onlinewebfonts.com/icon -->
<!DOCTYPE svg PUBLIC "-//W3C//DTD SVG 1.1//EN" "http://www.w3.org/Graphics/SVG/1.1/DTD/svg11.dtd">
<svg version="1.1" xmlns="http://www.w3.org/2000/svg" xmlns:xlink="http://www.w3.org/1999/xlink" x="0px" y="0px" viewBox="0 0 256 256" enable-background="new 0 0 256 256" xml:space="preserve">
<metadata> Svg Vector Icons : http://www.onlinewebfonts.com/icon </metadata>
<g><g><g><path fill="#000000" d="M64.3,25.5c-3.8,0.4-9.5,1.7-12.6,2.8C31.6,35.4,17.1,53.6,12,77.9c-2.3,10.8-2.6,23.2-0.9,31.4c5.9,28.5,33.1,61.6,78.9,95.7c12.1,9,28.1,19.9,36.2,24.6l2.1,1.2l7.1-4.7c25.7-16.6,50.5-36.2,68.7-54.3c28-27.9,42-52.6,42-74.7c0-13-2.9-26.6-7.8-37.2c-6.2-13.2-17-24.1-29-29.3c-28.3-12.2-59.6,0.3-76.8,30.5c-1.6,2.9-3.2,5.9-3.5,6.7c-0.3,0.9-0.7,1.6-0.8,1.6c-0.2,0-1.5-2.4-3-5.2c-7.9-15.6-18.4-26.5-32-33.1C83.8,26.5,73.4,24.5,64.3,25.5z"/></g></g></g>
</svg>