<?xml version="1.0" encoding="utf-8"?>
<!-- Svg Vector Icons : http://www.onlinewebfonts.com/icon -->
<!DOCTYPE svg PUBLIC "-//W3C//DTD SVG 1.1//EN" "http://www.w3.org/Graphics/SVG/1.1/DTD/svg11.dtd">
<svg version="1.1" xmlns="http://www.w3.org/2000/svg" xmlns:xlink="http://www.w3.org/1999/xlink" x="0px" y="0px" viewBox="0 0 256 256" enable-background="new 0 0 256 256" xml:space="preserve">
<metadata> Svg Vector Icons : http://www.onlinewebfonts.com/icon </metadata>
<g><g><path fill="#000000" d="M128,233.5l-3.7-3.7c-5.6-5.6-10.8-9.6-21.2-17.6c-6.4-4.9-14.3-11-25.3-19.7l-0.1-0.1C49.1,169.9,10,138.9,10,94.8c0-19.9,7.4-38.3,20.9-52c12.8-12.9,30-20.3,47.2-20.3c19.3,0,36.7,9,49.9,25.4c13.1-16.4,30.6-25.4,49.9-25.4c17.2,0,34.4,7.4,47.1,20.2C238.6,56.3,246,74.6,246,94.4c0,10.5-2.2,21-6.7,31.3c-3.9,8.8-9.5,17.8-16.7,26.5c-12.7,15.4-28.9,28.6-44.5,40.5c-5.4,4.1-10.1,7.7-14.2,10.9c-18.5,14.1-24.8,18.9-32.2,26.3L128,233.5z M78.1,33c-14.4,0-28.9,6.3-39.8,17.2C26.8,61.9,20.5,77.7,20.5,94.8c0,17.1,6.9,33.7,21,50.6c12.5,15,28.5,27.6,42.6,38.8l0.1,0.1c11,8.7,18.9,14.7,25.2,19.6c8.3,6.3,13.6,10.4,18.5,14.9c6.7-6.2,14-11.8,29.6-23.7c4.1-3.1,8.8-6.7,14.2-10.8c14.1-10.8,30.1-23.5,42.8-38.8c14.1-17.1,20.9-33.8,20.9-51.1c0-17-6.4-32.7-17.9-44.3c-10.8-10.9-25.3-17.1-39.7-17.1c-17.9,0-34.1,9.5-45.6,26.7l-4.3,6.6l-4.4-6.5C112.2,42.4,96,33,78.1,33z"/></g></g>
</svg>